<?xml version="1.0" encoding="UTF-8" standalone="no"?>
<svg
   xmlns:dc="http://purl.org/dc/elements/1.1/"
   xmlns:cc="http://creativecommons.org/ns#"
   xmlns:rdf="http://www.w3.org/1999/02/22-rdf-syntax-ns#"
   xmlns:svg="http://www.w3.org/2000/svg"
   xmlns="http://www.w3.org/2000/svg"
   id="svg8"
   version="1.1"
   viewBox="0 0 541.86665 541.86668"
   height="2048"
   width="2048">
  <defs
     id="defs2" />
  <metadata
     id="metadata5">
    <rdf:RDF>
      <cc:Work
         rdf:about="">
        <dc:format>image/svg+xml</dc:format>
        <dc:type
           rdf:resource="http://purl.org/dc/dcmitype/StillImage" />
        <dc:title></dc:title>
      </cc:Work>
    </rdf:RDF>
  </metadata>
  <g
     style="display:inline"
     transform="translate(0,244.86668)"
     id="layer1" />
  <g
     style="display:inline"
     id="layer2">
    <g
       id="g60" />
    <path
       transform="scale(0.26458333)"
       id="rect144"
       d="M 0,0 V 2048 H 2048 V 0 Z m 436.07812,819.98242 h 278.54493 v 78.01563 H 539.29297 v 74.52929 h 164.875 v 78.01366 h -164.875 v 91.6875 h 181.22851 v 78.0137 H 436.07812 Z m 375.0586,0 h 108.84375 c 60.76718,0 105.98563,4.3791 135.65433,13.13672 29.8474,8.5789 55.4053,23.23447 76.6738,43.9668 18.7663,18.05142 32.7072,38.87288 41.8223,62.46484 9.115,23.59196 13.6718,50.31275 13.6718,80.16012 0,30.2049 -4.5568,57.1922 -13.6718,80.9629 -9.1151,23.592 -23.056,44.4134 -41.8223,62.4649 -21.4472,20.7323 -47.1848,35.4767 -77.2109,44.2343 -30.0262,8.5789 -75.06496,12.8692 -135.11723,12.8692 H 811.13672 Z m 455.75388,0 h 103.2149 v 239.94138 c 0,33.0645 5.3603,56.7468 16.084,71.045 10.9023,14.1194 28.5964,21.1777 53.082,21.1777 24.6643,0 42.3584,-7.0583 53.082,-21.1777 10.9024,-14.2982 16.3535,-37.9805 16.3535,-71.045 V 819.98242 h 103.2149 v 239.94138 c 0,56.6565 -14.2074,98.8364 -42.625,126.5391 -28.4176,27.7027 -71.7604,41.5547 -130.0254,41.5547 -58.0863,0 -101.3383,-13.852 -129.7559,-41.5547 -28.4176,-27.7027 -42.625,-69.8826 -42.625,-126.5391 z m -352.53904,78.01563 v 244.23045 h 36.9961 c 42.17957,0 74.34954,-10.4561 96.51174,-31.3672 22.3408,-20.911 33.5117,-51.2942 33.5117,-91.1504 0,-39.67736 -11.08,-69.88287 -33.2422,-90.6152 -22.1621,-20.73233 -54.42295,-31.09765 -96.78124,-31.09765 z"
       style="fill:#1a1a1a;stroke:none;stroke-width:0.98071843" />
  </g>
</svg>
