<?xml version="1.0" encoding="UTF-8" standalone="no"?>
<svg xmlns:dc="http://purl.org/dc/elements/1.1/" xmlns:cc="http://creativecommons.org/ns#" xmlns:rdf="http://www.w3.org/1999/02/22-rdf-syntax-ns#" xmlns:svg="http://www.w3.org/2000/svg" xmlns="http://www.w3.org/2000/svg" xmlns:sodipodi="http://sodipodi.sourceforge.net/DTD/sodipodi-0.dtd" xmlns:inkscape="http://www.inkscape.org/namespaces/inkscape" version="1.1" id="Capa_1" x="0px" y="0px" viewBox="0 0 8192 8192" xml:space="preserve" sodipodi:docname="fms.svg" inkscape:version="0.92.4 (5da689c313, 2019-01-14)" width="8192" height="8192"><metadata id="metadata39"><rdf:RDF><cc:Work rdf:about=""><dc:format>image/svg+xml</dc:format><dc:type rdf:resource="http://purl.org/dc/dcmitype/StillImage"/><dc:title/></cc:Work></rdf:RDF></metadata><defs id="defs37"/><sodipodi:namedview pagecolor="#ffffff" bordercolor="#666666" borderopacity="1" objecttolerance="10" gridtolerance="10" guidetolerance="10" inkscape:pageopacity="0" inkscape:pageshadow="2" inkscape:window-width="1920" inkscape:window-height="1001" id="namedview35" showgrid="false" inkscape:zoom="0.08" inkscape:cx="4884.1586" inkscape:cy="3562.6754" inkscape:window-x="-9" inkscape:window-y="-9" inkscape:window-maximized="1" inkscape:current-layer="g32"/>
<style type="text/css" id="style2">
	.st0{fill:#FFFFFF;}
</style>
<g id="g32" transform="translate(18.741808,7109.6817)">
	
	<path class="st0" d="m 7681.8067,-4438.7455 c 0,572.8224 8.9504,1145.645 -2.441,1718.264 -12.6118,634.8646 -169.4464,1231.2835 -534.3766,1761.18505 C 6854.9164,-538.22314 6477.3743,-208.07726 6030.8739,30.734364 5437.3028,348.26845 4665.9728,716.94917 4067.5187,1025.3295 3840.8012,911.22452 2669.5513,325.62027 2123.2329,30.530947 1574.8205,-267.06821 1130.7609,-685.29368 836.00958,-1246.3179 643.17021,-1613.6893 531.29083,-2005.674 497.72702,-2417.5935 c -20.13829,-245.9312 -24.00322,-493.4898 -24.61347,-740.4381 -2.441,-1030.3075 0.20342,-2170.2694 -3.05125,-3200.3736 250.96659,-87.1798 -40.78544,15.6638 102.31878,-34.7716 613.57292,-216.246 1239.21682,-386.289 1880.59082,-495.5239 571.3985,-97.2334 1146.0519,-168.8362 1726.6042,-155.8175 678.3949,15.0529 1351.2985,94.5889 2009.9631,257.526 411.8585,123.2965 706.8233,157.7387 1495.5222,425.7011 -4.5626,599.8776 -2.441,1323.0755 -2.441,1922.9524 -0.2034,-0.4068 -0.4068,-0.4068 -0.8137,-0.4068 z" id="path6" inkscape:connector-curvature="0" style="fill:#ffffff;stroke-width:20.34170723" sodipodi:nodetypes="ccccccccccscccccc"/>
	<path d="m 704.19533,-4375.4828 c 0,-566.1097 2.29559,-1250.8883 -2.441,-1816.9976 54.2909,-20.1332 111.67596,-37.9627 111.67596,-37.9627 0,0 1331.16141,-385.2719 2019.52471,-482.9121 584.6208,-82.9942 1171.479,-129.5767 1761.9998,-81.1634 948.1248,77.7053 1874.8931,260.7806 2774.1999,575.2634 142.7359,49.8138 -29.2981,-10.0904 81.7737,28.0506 -2.441,1135.4742 14.0358,2359.2522 -7.7299,3494.3195 -19.7314,1027.4595 -450.7722,1858.41838 -1337.8739,2401.94876 C 5616.1064,4.900398 5089.663,243.91549 4579.2917,508.96794 4390.9987,597.04184 4102.5921,730.3685 4070.6848,745.65002 3473.249,449.88158 2820.1397,144.64792 2234.7054,-173.69978 1694.2263,-467.63743 1263.389,-884.43898 994.06464,-1449.9386 c -189.5847,-397.8837 -277.46087,-821.398 -285.80097,-1258.1344 -10.7811,-555.7354 -2.64442,-1111.6744 -2.64442,-1667.6132 -0.40683,0.2034 -0.81367,0.2034 -1.42392,0.2034 z m 373.88057,149.5115 h -0.4069 c 0,433.8886 2.2376,867.7772 -0.6102,1301.6659 -3.0513,480.4711 66.7208,945.4825 289.0558,1377.3369 242.4731,470.9107 619.4049,815.09232 1076.6865,1062.85429 520.5442,281.93604 1259.7844,633.08982 1790.4995,895.90473 28.8852,14.23919 -290.9271,-21.45216 -258.9906,-37.11527 474.1661,-232.09885 1116.3701,-531.69483 1586.0601,-772.74404 376.7285,-193.44962 713.994,-441.41502 982.3011,-775.01901 361.0653,-449.145 519.934,-973.1473 527.0536,-1537.6297 13.2221,-1043.9365 8.1367,-2170.7099 8.1367,-3214.8543 -22.1704,-52.1736 -776.2903,-209.6346 -1109.64,-289.4116 -531.3256,-126.5254 -1072.4149,-189.7881 -1616.9614,-217.8597 -505.6948,-26.0374 -1007.5247,23.7998 -1507.9308,96.6231 -314.6705,53.2328 -1618.5284,340.4911 -1767.2876,407.0375 3.6615,535.3937 2.0342,1167.6141 2.0342,1703.2112 z" id="path8" inkscape:connector-curvature="0" sodipodi:nodetypes="cccccccccccccccccccccccccccccccc" style="fill:#1e3c70;fill-opacity:1;stroke-width:20.34170723"/>
	
	<path d="m 5188.9305,-3393.9955 c -164.1575,32.1399 -315.9066,61.8389 -476.8075,93.1651 v -1683.8865 -65.1109 c -143.8158,322.416 -317.5055,698.854 -469.8648,1040.5948 -153.7833,-346.2159 -325.1613,-736.6559 -470.1977,-1062.7335 1.2002,25.2938 2.1351,39.1894 1.8816,68.4831 0.3519,33.4955 0.954,57.8226 0.954,87.1146 -0.2034,579.5352 -2.0342,1268.9164 2.0342,1848.4518 -2.6721,1.4991 -101.9897,25.6394 -465.8251,132.4237 v -3092.3464 c 142.5954,-12.0016 301.4191,-23.4183 466.4677,-36.066 33.1246,66.9854 1.6598,-0.081 33.1246,66.9854 126.7288,273.1891 250.4064,547.8021 375.1011,821.805 16.2733,35.8014 34.7843,70.7892 62.2456,126.5254 96.8265,-210.5366 184.0935,-400.3249 270.9526,-590.3164 50.6509,-110.8623 138.4477,-296.3424 184.0131,-409.2389 162.5608,19.9318 325.0178,40.7425 487.668,59.9389 -4.2718,345.6056 -1.8308,785.8331 -1.8308,1131.6421 v 1352.1132 z" id="path12" inkscape:connector-curvature="0" sodipodi:nodetypes="ccccccccccccccccccscc" style="fill:#1e3c70;fill-opacity:1;stroke-width:20.34170723"/>
	<path d="m 2137.2687,-2483.5006 c -192.2292,103.1324 -388.1198,208.5025 -611.2683,328.3151 -22.5793,-236.3706 -61.2285,-462.367 -62.8559,-688.5667 -7.1196,-914.9701 -3.6615,-1909.9497 -0.6102,-2825.1232 23.3802,-6.2647 -19.5662,5.4092 56.5499,-14.9861 468.4695,-102.929 938.3629,-199.959 1408.0529,-297.3957 126.058,-26.0338 0,0 69.1618,-14.2256 0,184.4993 2.441,420.2729 -3.2547,599.0765 -449.0258,91.015 -652.9033,138.7237 -935.3423,193.2983 0.3905,104.5665 1.5032,720.0605 1.4544,902.8895 213.3845,-46.9894 415.5811,-91.5377 637.5091,-140.3578 0,169.0396 3.4581,360.39 -4.2718,519.869 -129.278,34.6399 59.0687,-15.8001 -92.7581,24.8819 -156.6822,41.9829 -382.6275,99.3058 -540.886,134.7004 -55.3294,12.4084 -1.4239,-52.2782 0,0 8.5435,304.5153 10.9845,683.85 24.2066,988.1619 4.2718,96.2163 35.1912,191.212 54.3124,289.4625 z" id="path14" inkscape:connector-curvature="0" sodipodi:nodetypes="ccccccccccccsccccc" style="fill:#1e3c70;fill-opacity:1;stroke-width:20.34170723"/>
	<path d="m 1749.7592,-1656.6103 c 226.1997,-118.1853 437.1432,-232.0988 651.7482,-338.486 65.0935,-32.3433 98.047,-65.0934 92.1479,-143.2056 -17.087,-234.5398 -3.6615,-464.1977 88.8933,-687.9565 28.8852,-69.9754 4.4752,-162.1234 4.4752,-263.2216 -95.606,85.0283 -128.763,39.6663 -152.156,-39.8698 -20.3444,-69.1317 -31.3963,-108.9826 -53.1691,-137.2567 -9.1819,-11.9238 -59.482,12.3416 -133.1609,35.0524 -35.598,10.9845 -72.4165,23.0751 -108.6247,32.2289 -3.8649,-12.6119 -7.5265,-25.2238 -11.3914,-37.8356 80.0481,-25.7051 160.0962,-51.4467 240.408,-77.2716 -5.6197,-21.2687 67.8494,-44.9295 76.1964,-24.4997 83.9124,-26.9777 168.2017,-54.0614 253.1668,-81.3042 -11.3914,-82.9942 -66.1105,-194.8736 53.4987,-213.5879 100.8948,-15.8666 72.2321,117.486 82.6064,181.5624 90.3618,-24.2123 142.1974,-40.873 166.5223,-68.4179 10.0195,-20.9348 11.7347,-27.5272 16.9386,-42.2472 2.9843,-39.8503 -16.6291,-98.1886 -48.0042,-193.151 54.1779,48.5344 101.0164,127.3065 134.492,213.0703 8.0518,-1.832 21.1805,-6.8952 25.0267,-0.6811 6.0586,9.7885 15.7877,30.3458 18.8122,41.2746 1.9284,6.9683 -16.7491,15.522 -23.562,17.3813 33.655,108.3946 27.4449,253.2861 30.6869,322.27 -17.3375,10.1016 -25.2018,13.6447 -44.2844,23.4456 -9.5606,-86.6557 -20.8749,-169.4464 -35.1141,-250.8134 -3.8649,-22.5793 -27.5383,-58.1773 -44.422,-57.567 -50.6508,1.4239 -131.8841,27.2324 -182.3316,37.8101 6.5094,17.2905 39.5329,35.8268 50.9242,40.302 117.7785,46.5827 112.8965,158.4621 153.7833,252.6442 66.1107,151.7491 12.205,291.2932 3.8649,436.1261 -0.8136,14.8495 -12.4084,28.8853 -19.1212,43.3279 -10.3742,0.4068 -20.9519,1.0171 -31.3262,1.4239 -3.2547,-34.5809 -17.9007,-72.8233 -7.7298,-102.929 48.4132,-144.2227 31.9364,-263.2217 -63.2627,-392.1881 -63.873,83.8078 0.2034,656.4268 98.8606,846.0115 1169.2414,-486.3702 2380.3857,-835.027 3643.8092,-1059.1926 0,84.4181 -0.2035,132.3004 -3.6616,279.0143 -28.1163,7.5342 3.0106,-0.3844 -76.8916,21.0259 -339.0962,92.1479 -681.6506,171.8874 -1018.7128,270.7481 -845.1958,247.9654 -1643.6089,606.5896 -2399.7101,1056.7516 -316.7205,188.5676 -622.4563,396.0531 -947.5168,604.1488 -187.3471,-133.2382 -333.1971,-325.0606 -482.7086,-543.9374 z m 1153.9849,-571.6019 c -31.1228,-120.0161 -53.9055,-231.2852 -90.9274,-337.4689 -12.6119,-36.2082 -41.5632,-99.1352 -93.3684,-89.0967 -38.8932,-3.2577 -42.5142,62.4491 -52.685,97.03 -13.2222,44.1415 -12.2051,92.3513 -22.5793,137.7133 -25.2238,111.4726 -53.4987,222.3348 -82.9942,343.5714 113.5067,-50.0406 222.5383,-98.4538 342.5543,-151.7491 z m -336.045,-1080.1446 c 6.5121,-12.7186 6.9706,-24.704 5.8937,-30.9199 -16.2649,-3.6004 -24.6091,5.684 -49.2278,16.6553 -14.8106,7.6107 -32.2416,11.573 -43.6812,19.9571 0.089,17.5168 -0.9883,26.3389 -7.7474,46.4406 0,25.5772 11.972,55.8814 23.3634,85.3768 10.3456,9.1093 19.4994,5.3111 27.2578,-3.458 14.6461,-44.7518 29.2921,-89.3001 44.1415,-134.0519 z" id="path16" inkscape:connector-curvature="0" sodipodi:nodetypes="ccccccsccccccccccccsscccccccccccccccccccccccccccccccccccc" style="fill:#5d00a7;fill-opacity:1;stroke-width:20.34170723"/>
	<path d="m 5546.7412,-4484.3109 c 161.5681,93.281 184.5928,105.6026 377.1353,216.7678 5.4923,120.8298 2.2376,303.9798 2.2376,436.2009 135.6792,-13.0187 258.7465,-24.8169 393.2052,-37.6322 0,-154.5969 2.2376,-302.888 -2.441,-450.7722 -0.6103,-22.7827 -28.4784,-51.4645 -51.0577,-65.9071 -144.8329,-93.9787 -290.0727,-187.5505 -438.5673,-275.6301 -191.2121,-113.5067 -295.3616,-270.5447 -281.9361,-500.2025 7.5265,-128.3562 0.8137,-257.5262 1.8308,-386.2892 0.4068,-37.0219 2.441,-74.654 9.1538,-111.0657 35.1911,-187.3471 144.8329,-257.7294 330.146,-214.605 164.5644,38.4458 328.9254,78.3156 494.1,114.117 242.2697,52.4816 329.3322,161.5131 325.6707,409.8853 -2.441,176.1594 -1.8307,392.6333 -3.0512,568.7924 -201.1552,-154.3961 -217.7966,-166.7014 -383.0343,-290.4043 -4.4752,-110.6589 -9.3572,-287.3384 -14.0358,-397.9973 -120.4229,-31.1228 -240.8458,-62.0422 -379.1694,-97.6402 0,179.2105 -2.2376,343.3682 2.441,507.5257 0.6102,23.1896 30.716,51.0577 53.7021,67.1277 169.4464,117.9819 339.2996,235.7603 511.7973,349.4705 145.2398,95.8094 214.4016,230.0647 217.8597,400.5282 2.441,118.5921 1.8307,237.3877 0.2034,355.9798 -2.0342,156.4277 -82.1805,272.172 -235.557,300.2436 -232.3022,42.3107 -467.2489,73.4335 -702.3992,97.2333 -133.645,13.4256 -220.7075,-67.9413 -225.1827,-205.6546 -7.7298,-226.81 -3.0512,-454.2303 -3.4581,-681.2437 0.4069,-30.3092 0.4069,-60.0081 0.4069,-108.8281 z" id="path18" inkscape:connector-curvature="0" sodipodi:nodetypes="ccccccccccccccccccccccccccc" style="fill:#1e3c70;fill-opacity:1;stroke-width:20.34170723"/>
	<path d="m 4954.1873,-565.48103 v -637.71247 c 0,-311.4317 2.2376,-721.8164 -1.8308,-1033.0445 229.7942,-86.02 330.5467,-119.0603 579.3318,-214.5125 v 132.4245 c 0,453.4167 -1.6273,1016.8829 1.8307,1470.50289 -27.5487,9.67995 -356.9684,172.4778 -579.3317,282.34208 z" id="path20" inkscape:connector-curvature="0" sodipodi:nodetypes="csccscc" style="fill:#5d00a7;fill-opacity:1;stroke-width:20.34170723"/>
	<path d="m 4360.8218,-1969.4657 v 835.434 c 0,257.52599 -1.6274,590.6869 1.0171,848.21289 0,0 -51.0032,30.57152 -278.2337,175.3865 -235.8345,-119.22273 -299.4719,-150.58933 -299.4719,-150.58933 -4.0683,-420.25963 -3.4581,-985.35966 -1.2205,-1405.61936 111.4743,-64.3597 292.0429,-156.7142 577.909,-302.8247 z" id="path22" inkscape:connector-curvature="0" sodipodi:nodetypes="csccccc" style="fill:#5d00a7;fill-opacity:1;stroke-width:20.34170723"/>
	<path d="m 6699.7092,-2771.946 c -7.1196,564.2789 -168.0225,1068.9566 -574.2464,1485.3515 v -67.331 c -0.4068,-396.0532 -1.6273,-1188.3626 -1.6273,-1188.3626 0,-37.6866 -1.3222,-49.1559 -1.3222,-87.7941 63.8769,-17.1097 56.8632,-17.3726 91.0372,-26.5263 0,0 314.076,-73.637 486.1668,-115.3375 z" id="path24" inkscape:connector-curvature="0" sodipodi:nodetypes="cccccccc" style="fill:#5d00a7;fill-opacity:1;stroke-width:20.34170723"/>
	<path d="m 3178.7641,-567.92203 c -214.8085,-113.91356 -413.9538,-219.28359 -635.6784,-336.65523 218.4699,-147.47734 419.6494,-283.15654 635.6784,-429.00654 z" id="path26" inkscape:connector-curvature="0" style="fill:#5d00a7;fill-opacity:1;stroke-width:20.34170723" sodipodi:nodetypes="cccc"/>
	
	
</g>
</svg>