<?xml version="1.0" encoding="UTF-8" standalone="no"?>
<svg
   xmlns:dc="http://purl.org/dc/elements/1.1/"
   xmlns:cc="http://creativecommons.org/ns#"
   xmlns:rdf="http://www.w3.org/1999/02/22-rdf-syntax-ns#"
   xmlns:svg="http://www.w3.org/2000/svg"
   xmlns="http://www.w3.org/2000/svg"
   id="svg23"
   viewBox="0 0 233 233"
   version="1.1">
  <metadata
     id="metadata27">
    <rdf:RDF>
      <cc:Work
         rdf:about="">
        <dc:format>image/svg+xml</dc:format>
        <dc:type
           rdf:resource="http://purl.org/dc/dcmitype/StillImage" />
        <dc:title></dc:title>
      </cc:Work>
    </rdf:RDF>
  </metadata>
  <defs
     id="defs17">
    <linearGradient
       y2="100%"
       x1="50%"
       x2="50%"
       id="a">
      <stop
         id="stop2"
         offset="0"
         stop-color="#111D2E" />
      <stop
         id="stop4"
         offset=".21248"
         stop-color="#051839" />
      <stop
         id="stop6"
         offset=".40695"
         stop-color="#0A1B48" />
      <stop
         id="stop8"
         offset=".58110"
         stop-color="#132E62" />
      <stop
         id="stop10"
         offset=".73760"
         stop-color="#144B7E" />
      <stop
         id="stop12"
         offset=".87279"
         stop-color="#136497" />
      <stop
         style="stop-color:#ffffff;stop-opacity:1"
         id="stop14"
         offset="1"
         stop-color="#1387B8" />
    </linearGradient>
  </defs>
  <path
     id="path19"
     d="M 116.50195 0 C 54.760953 0 4.2419531 48.028766 0.25195312 108.75977 C 0.26943857 108.78913 0.28529844 108.81639 0.30273438 108.8457 C 0.30274324 108.84554 0.30273528 108.83008 0.30273438 108.83008 L 62.900391 134.59961 C 64.603391 133.47961 66.418469 132.5107 68.355469 131.7207 C 72.749469 129.9107 77.383953 129.10055 82.001953 129.31055 L 110.50977 87.898438 C 110.49977 87.714438 110.5 87.518266 110.5 87.322266 C 110.5 62.882266 130.35 43 154.75 43 C 179.16 43 199 62.882266 199 87.322266 C 199 111.76027 179.16 131.66016 154.75 131.66016 C 154.42 131.66016 154.08 131.65062 153.75 131.64062 L 112.96094 160.78906 C 113.08094 165.28906 112.2507 169.79961 110.4707 174.09961 C 103.6307 190.54961 84.671516 198.37977 68.228516 191.50977 C 58.178516 187.31977 51.366531 178.60969 49.144531 168.67969 L 5.0429688 150.48242 C 19.586881 198.24731 63.982362 233 116.50195 233 C 180.84195 233 233.00195 180.84 233.00195 116.5 C 233.00195 52.159 180.84195 0 116.50195 0 z M 154.75 57.792969 C 138.5 57.792969 125.26953 71.047266 125.26953 87.322266 C 125.26953 103.61027 138.5 116.85938 154.75 116.85938 C 171.01 116.85938 184.24023 103.61027 184.24023 87.322266 C 184.24023 71.047266 171.01 57.792969 154.75 57.792969 z M 154.80078 65.085938 C 167.03078 65.085938 176.94922 75.024344 176.94922 87.277344 C 176.94922 99.531344 167.03078 109.46094 154.80078 109.46094 C 142.58078 109.46094 132.66016 99.531344 132.66016 87.277344 C 132.66016 75.024344 142.58078 65.085938 154.80078 65.085938 z M 80.917969 136.68945 C 77.803844 136.66445 74.734328 137.23031 71.861328 138.32031 L 86.753906 144.49023 C 96.111906 148.39023 100.54072 159.14953 96.636719 168.51953 C 92.744719 177.87953 82.001672 182.31992 72.638672 178.41992 L 58.234375 172.44922 C 60.785375 177.77922 65.207453 182.24945 71.064453 184.68945 C 83.760453 189.97945 98.366156 183.95023 103.66016 171.24023 C 106.22016 165.10023 106.22922 158.30062 103.69922 152.14062 C 101.16922 145.98062 96.395188 141.15961 90.242188 138.59961 C 87.190688 137.32961 84.032094 136.71445 80.917969 136.68945 z "
     style="fill:#ffffff;fill-opacity:1;opacity:1" />
</svg>
