<?xml version="1.0" encoding="UTF-8" standalone="no"?>
<svg
   xmlns:dc="http://purl.org/dc/elements/1.1/"
   xmlns:cc="http://creativecommons.org/ns#"
   xmlns:rdf="http://www.w3.org/1999/02/22-rdf-syntax-ns#"
   xmlns:svg="http://www.w3.org/2000/svg"
   xmlns="http://www.w3.org/2000/svg"
   viewBox="0 0 182 182"
   height="182"
   width="182"
   xml:space="preserve"
   id="svg2"
   version="1.1"><metadata
     id="metadata8"><rdf:RDF><cc:Work
         rdf:about=""><dc:format>image/svg+xml</dc:format><dc:type
           rdf:resource="http://purl.org/dc/dcmitype/StillImage" /><dc:title></dc:title></cc:Work></rdf:RDF></metadata><defs
     id="defs6"><clipPath
       id="clipPath18"
       clipPathUnits="userSpaceOnUse"><path
         id="path16"
         d="M 0,255.118 H 550.024 V 0 H 0 Z" /></clipPath></defs><g
     transform="matrix(1.3333333,0,0,-1.3333333,0,182.00001)"
     id="g10"><g
       id="g12"><g
         style="fill:#000000;fill-opacity:1"
         transform="matrix(1.3963056,0,0,1.3963056,-108.98886,-50.552346)"
         clip-path="url(#clipPath18)"
         id="g14"><g
           style="fill:#ffffff;fill-opacity:1"
           transform="matrix(0.77902103,0,0,0.77902103,117.47021,70.887248)"
           id="g20"><path
             id="path22"
             style="fill:#ffffff;fill-opacity:1;fill-rule:nonzero;stroke:none"
             d="M 0,0 V 36.446 L 31.562,18.223 Z m 70.353,47.464 c -1.398,5.226 -5.514,9.343 -10.741,10.74 -9.474,2.539 -47.464,2.539 -47.464,2.539 0,0 -37.989,0 -47.463,-2.539 -5.227,-1.397 -9.343,-5.514 -10.74,-10.74 -2.539,-9.474 -2.539,-29.241 -2.539,-29.241 0,0 0,-19.767 2.539,-29.241 1.397,-5.226 5.513,-9.343 10.74,-10.74 9.474,-2.539 47.463,-2.539 47.463,-2.539 0,0 37.99,0 47.464,2.539 5.227,1.397 9.343,5.514 10.741,10.74 2.538,9.474 2.538,29.241 2.538,29.241 0,0 0,19.767 -2.538,29.241" /></g></g></g></g></svg>